/vscmnt/brussel_pixiu_data/_data_brussel/112/vsc11236/PredSimResults/SUBJ07_gait1422_tracking/SUBJ07_gait1422_11417571.mot
version=1
nRows=5
nColumns=50
inDegrees=yes
endheader
                time	         pelvis_tilt	         pelvis_list	     pelvis_rotation	           pelvis_tx	           pelvis_ty	           pelvis_tz	       hip_flexion_r	     hip_adduction_r	      hip_rotation_r	        knee_angle_r	       ankle_angle_r	         mtp_angle_r	       hip_flexion_l	     hip_adduction_l	      hip_rotation_l	        knee_angle_l	       ankle_angle_l	         mtp_angle_l	    lumbar_extension	      lumbar_bending	     lumbar_rotation	 ercspn_r/activation	 intobl_r/activation	 extobl_r/activation	    abd_r/activation	    add_r/activation	hamstrings_r/activation	bifemsh_r/activation	glut_max_r/activation	iliopsoas_r/activation	rect_fem_r/activation	  vasti_r/activation	gastroc_r/activation	 soleus_r/activation	tib_ant_r/activation	 ercspn_l/activation	 intobl_l/activation	 extobl_l/activation	    abd_l/activation	    add_l/activation	hamstrings_l/activation	bifemsh_l/activation	glut_max_l/activation	iliopsoas_l/activation	rect_fem_l/activation	  vasti_l/activation	gastroc_l/activation	 soleus_l/activation	tib_ant_l/activation	
          1.04516572	          1.67332863	          4.68698748	         -0.05967446	          1.27510217	          0.84669629	         -0.01352844	         30.30899804	         -2.21729807	         -4.10307081	        -17.04280368	         -2.56608006	          0.23531877	        -17.74451794	          8.25508382	         -8.55167820	        -12.04212900	         12.22612132	         26.12643105	         -7.12591664	         -7.04409595	         -6.89568855	          0.02872075	          0.04162046	          0.04477991	          0.01378833	          0.05613716	          0.02162260	          0.16371842	          0.01436633	          0.09918823	          0.01000122	          0.03952454	          0.04179791	          0.01174198	          0.22906205	          0.01378961	          0.01000242	          0.02593744	          0.06107529	          0.01000151	          0.01174054	          0.01174408	          0.01019043	          0.18657858	          0.20179778	          0.02851262	          0.50942205	          0.47713964	          0.03345731	
          1.05561737	          1.48815232	          4.13911217	          0.25804307	          1.29117314	          0.84608239	         -0.01336024	         29.73712356	         -1.68346076	         -3.93379183	        -17.85537664	         -2.17235717	          0.21138895	        -18.13823901	          7.45504372	         -8.60358131	        -12.84731929	         10.79734498	         28.44689041	         -6.56218703	         -6.28115932	         -6.87385751	          0.02446003	          0.14569816	          0.15454015	          0.01174282	          0.04781081	          0.01841486	          0.13943109	          0.01223509	          0.27786906	          0.18767984	          0.03409013	          0.03559713	          0.01000005	          0.25690497	          0.01174589	          0.01001031	          0.12158290	          0.05201470	          0.01000191	          0.01000039	          0.01000242	          0.01000057	          0.15889988	          0.17186076	          0.02620849	          0.48397334	          0.45473150	          0.02849384	
          1.06606903	          1.28145033	          3.44587562	          0.50733927	          1.30735006	          0.84584280	         -0.01300673	         29.29479237	         -0.93708781	         -3.65744331	        -18.83161412	         -1.85972973	          0.21553074	        -18.42771768	          6.49925504	         -8.63767684	        -13.75386214	          9.17561451	         30.79963993	         -5.96692644	         -5.35617619	         -6.79175908	          0.02083140	          0.12408657	          0.13161448	          0.01000078	          0.04872083	          0.01568302	          0.11874679	          0.01042005	          0.24399896	          0.15983741	          0.05350316	          0.03031656	          0.02607705	          0.21879268	          0.01000347	          0.01379115	          0.10354713	          0.04429826	          0.01000094	          0.01000096	          0.01000114	          0.01122974	          0.13532980	          0.14636489	          0.02232043	          0.45229793	          0.42737901	          0.02426672	
          1.07652069	          1.05962315	          2.56151553	          0.65831222	          1.32344800	          0.84599133	         -0.01242284	         29.05664004	          0.07810136	         -3.24803584	        -19.97644002	         -2.11376948	          0.21628170	        -18.57330890	          5.34871760	         -8.67519554	        -14.83615317	          7.41846184	         33.11804586	         -5.38015229	         -4.21353880	         -6.63293486	          0.01774115	          0.10567868	          0.11208955	          0.01000009	          0.04807290	          0.01335673	          0.10113159	          0.01000039	          0.20780125	          0.13612525	          0.04556598	          0.03141002	          0.04075293	          0.18633461	          0.01000030	          0.01174547	          0.08818580	          0.03772656	          0.01000052	          0.02316045	          0.01000675	          0.01626638	          0.14176977	          0.12465136	          0.01900916	          0.42384589	          0.37047141	          0.02066670	
          1.08697234	          0.84091131	          1.56490429	          0.70982751	          1.33948031	          0.84649505	         -0.01160409	         28.98074834	          1.28128334	         -2.66301118	        -21.36966617	         -2.36086843	          0.24858013	        -18.57139446	          4.08318610	         -8.70233366	        -16.15298087	          5.52717501	         35.32837790	         -4.81913268	         -2.94438576	         -6.41095161	          0.01711894	          0.09000122	          0.09546104	          0.02027469	          0.04094164	          0.04536908	          0.08612922	          0.05892454	          0.17697353	          0.11593084	          0.03880651	          0.02675154	          0.04415356	          0.15869164	          0.03266483	          0.01000321	          0.07510330	          0.03212978	          0.01000041	          0.02658709	          0.03153692	          0.01385490	          0.20348178	          0.10615909	          0.01618912	          0.36096753	          0.31551120	          0.01760075	
